<svg xmlns="http://www.w3.org/2000/svg" version="1.1" xmlns:xlink="http://www.w3.org/1999/xlink" width="1000" height="1000"><style>
    #light-icon {
      display: inline;
    }
    #dark-icon {
      display: none;
    }

    @media (prefers-color-scheme: dark) {
      #light-icon {
        display: none;
      }
      #dark-icon {
        display: inline;
      }
    }
  </style><g id="light-icon"><svg xmlns="http://www.w3.org/2000/svg" version="1.1" xmlns:xlink="http://www.w3.org/1999/xlink" width="1000" height="1000"><g clip-path="url(#SvgjsClipPath1029)"><rect width="1000" height="1000" fill="#e2e2e2"></rect><g transform="matrix(0.68359375,0,0,0.68359375,150,150)"><svg xmlns="http://www.w3.org/2000/svg" version="1.1" xmlns:xlink="http://www.w3.org/1999/xlink" width="1024" height="1024"><svg xmlns="http://www.w3.org/2000/svg" xmlns:xlink="http://www.w3.org/1999/xlink" width="1024" height="1024">
	<path fill="#E2E2E2" d="M0 0L1024 0L1024 1024L0 1024L0 0ZM320.096 280.807C319.105 296.593 319.835 312.793 319.858 328.622L319.925 419.978C378.84 420.884 437.788 419.829 496.706 420.26L496.549 401.912C485.372 402.532 474.091 403.021 462.911 402.202C427.925 399.749 394.74 385.761 368.554 362.43C349.263 345.139 335.175 324.93 325.994 300.667C323.594 294.321 322.933 286.793 320.096 280.807ZM544.056 281.208C536.046 281.763 528.326 283.023 520.465 284.609L520.525 420.309L681.25 420.122L704.68 420.103C698.985 376.236 681.584 340.733 646.006 313.438C616.563 290.849 581.236 279.144 544.056 281.208ZM320.16 438.862C319.349 455.646 319.803 472.601 319.825 489.403L319.872 581.251L452.095 581.396C461.919 581.353 471.744 581.36 481.567 581.417C486.512 581.433 492.415 582.019 497.252 581.162C497.237 575.435 497.116 569.686 497.33 563.963C484.974 564.003 472.543 564.174 460.227 563.035C423.608 559.649 388.856 545.449 362.566 519.318C341.227 498.108 324.651 468.871 320.16 438.862ZM541.426 440.237C534.41 440.51 527.345 440.917 520.388 441.906L520.792 530.301C520.777 547.322 520.262 564.469 520.832 581.476L682.527 581.422C689.882 581.408 697.245 581.324 704.6 581.411C703.384 545.803 683.89 509.141 658.216 485.078C625.023 453.967 586.625 440.089 541.426 440.237ZM535.112 603.208C530.283 603.679 525.417 604.313 520.58 604.612L520.762 744.373L688.75 744.511L704.138 744.528C700.648 703.174 682.582 667.71 650.718 640.842C617.98 613.238 577.739 600.643 535.112 603.208ZM320.159 604.858C318.93 621.708 319.871 639.104 319.938 656.021L319.997 743.601C356.244 744.513 392.642 743.848 428.907 743.911L473.107 743.983C480.49 743.993 488.163 744.427 495.52 743.949C496.214 743.904 496.994 743.833 497.522 743.364L497.483 725.188C452.597 729.305 407.535 720.238 372.179 690.875C345.728 668.809 327.417 638.531 320.159 604.858Z"></path>
	<path d="M319.925 419.978L319.858 328.622C319.835 312.793 319.105 296.593 320.096 280.807C322.933 286.793 323.594 294.321 325.994 300.667C335.175 324.93 349.263 345.139 368.554 362.43C394.74 385.761 427.925 399.749 462.911 402.202C474.091 403.021 485.372 402.532 496.549 401.912L496.706 420.26C437.788 419.829 378.84 420.884 319.925 419.978Z"></path>
	<path d="M520.465 284.609C528.326 283.023 536.046 281.763 544.056 281.208C581.236 279.144 616.563 290.849 646.006 313.438C681.584 340.733 698.985 376.236 704.68 420.103L681.25 420.122L520.525 420.309L520.465 284.609Z"></path>
	<path d="M319.872 581.251L319.825 489.403C319.803 472.601 319.349 455.646 320.16 438.862C324.651 468.871 341.227 498.108 362.566 519.318C388.856 545.449 423.608 559.649 460.227 563.035C472.543 564.174 484.974 564.003 497.33 563.963C497.116 569.686 497.237 575.435 497.252 581.162C492.415 582.019 486.512 581.433 481.567 581.417C471.744 581.36 461.919 581.353 452.095 581.396L319.872 581.251Z"></path>
	<path d="M520.388 441.906C527.345 440.917 534.41 440.51 541.426 440.237C586.625 440.089 625.023 453.967 658.216 485.078C683.89 509.141 703.384 545.803 704.6 581.411C697.245 581.324 689.882 581.408 682.527 581.422L520.832 581.476C520.262 564.469 520.777 547.322 520.792 530.301L520.388 441.906Z"></path>
	<path d="M520.58 604.612C525.417 604.313 530.283 603.679 535.112 603.208C577.739 600.643 617.98 613.238 650.718 640.842C682.582 667.71 700.648 703.174 704.138 744.528L688.75 744.511L520.762 744.373L520.58 604.612Z"></path>
	<path d="M319.997 743.601L319.938 656.021C319.871 639.104 318.93 621.708 320.159 604.858C327.417 638.531 345.728 668.809 372.179 690.875C407.535 720.238 452.597 729.305 497.483 725.188L497.522 743.364C496.994 743.833 496.214 743.904 495.52 743.949C488.163 744.427 480.49 743.993 473.107 743.983L428.907 743.911C392.642 743.848 356.244 744.513 319.997 743.601Z"></path>
</svg></svg></g></g><defs><clipPath id="SvgjsClipPath1029"><rect width="1000" height="1000" x="0" y="0" rx="350" ry="350"></rect></clipPath></defs></svg></g><g id="dark-icon"><svg xmlns="http://www.w3.org/2000/svg" version="1.1" xmlns:xlink="http://www.w3.org/1999/xlink" width="1000" height="1000"><g clip-path="url(#SvgjsClipPath1030)"><rect width="1000" height="1000" fill="#e2e2e2"></rect><g transform="matrix(0.68359375,0,0,0.68359375,150,150)"><svg xmlns="http://www.w3.org/2000/svg" version="1.1" xmlns:xlink="http://www.w3.org/1999/xlink" width="1024" height="1024"><svg xmlns="http://www.w3.org/2000/svg" xmlns:xlink="http://www.w3.org/1999/xlink" width="1024" height="1024">
	<path fill="#E2E2E2" d="M0 0L1024 0L1024 1024L0 1024L0 0ZM320.096 280.807C319.105 296.593 319.835 312.793 319.858 328.622L319.925 419.978C378.84 420.884 437.788 419.829 496.706 420.26L496.549 401.912C485.372 402.532 474.091 403.021 462.911 402.202C427.925 399.749 394.74 385.761 368.554 362.43C349.263 345.139 335.175 324.93 325.994 300.667C323.594 294.321 322.933 286.793 320.096 280.807ZM544.056 281.208C536.046 281.763 528.326 283.023 520.465 284.609L520.525 420.309L681.25 420.122L704.68 420.103C698.985 376.236 681.584 340.733 646.006 313.438C616.563 290.849 581.236 279.144 544.056 281.208ZM320.16 438.862C319.349 455.646 319.803 472.601 319.825 489.403L319.872 581.251L452.095 581.396C461.919 581.353 471.744 581.36 481.567 581.417C486.512 581.433 492.415 582.019 497.252 581.162C497.237 575.435 497.116 569.686 497.33 563.963C484.974 564.003 472.543 564.174 460.227 563.035C423.608 559.649 388.856 545.449 362.566 519.318C341.227 498.108 324.651 468.871 320.16 438.862ZM541.426 440.237C534.41 440.51 527.345 440.917 520.388 441.906L520.792 530.301C520.777 547.322 520.262 564.469 520.832 581.476L682.527 581.422C689.882 581.408 697.245 581.324 704.6 581.411C703.384 545.803 683.89 509.141 658.216 485.078C625.023 453.967 586.625 440.089 541.426 440.237ZM535.112 603.208C530.283 603.679 525.417 604.313 520.58 604.612L520.762 744.373L688.75 744.511L704.138 744.528C700.648 703.174 682.582 667.71 650.718 640.842C617.98 613.238 577.739 600.643 535.112 603.208ZM320.159 604.858C318.93 621.708 319.871 639.104 319.938 656.021L319.997 743.601C356.244 744.513 392.642 743.848 428.907 743.911L473.107 743.983C480.49 743.993 488.163 744.427 495.52 743.949C496.214 743.904 496.994 743.833 497.522 743.364L497.483 725.188C452.597 729.305 407.535 720.238 372.179 690.875C345.728 668.809 327.417 638.531 320.159 604.858Z"></path>
	<path d="M319.925 419.978L319.858 328.622C319.835 312.793 319.105 296.593 320.096 280.807C322.933 286.793 323.594 294.321 325.994 300.667C335.175 324.93 349.263 345.139 368.554 362.43C394.74 385.761 427.925 399.749 462.911 402.202C474.091 403.021 485.372 402.532 496.549 401.912L496.706 420.26C437.788 419.829 378.84 420.884 319.925 419.978Z"></path>
	<path d="M520.465 284.609C528.326 283.023 536.046 281.763 544.056 281.208C581.236 279.144 616.563 290.849 646.006 313.438C681.584 340.733 698.985 376.236 704.68 420.103L681.25 420.122L520.525 420.309L520.465 284.609Z"></path>
	<path d="M319.872 581.251L319.825 489.403C319.803 472.601 319.349 455.646 320.16 438.862C324.651 468.871 341.227 498.108 362.566 519.318C388.856 545.449 423.608 559.649 460.227 563.035C472.543 564.174 484.974 564.003 497.33 563.963C497.116 569.686 497.237 575.435 497.252 581.162C492.415 582.019 486.512 581.433 481.567 581.417C471.744 581.36 461.919 581.353 452.095 581.396L319.872 581.251Z"></path>
	<path d="M520.388 441.906C527.345 440.917 534.41 440.51 541.426 440.237C586.625 440.089 625.023 453.967 658.216 485.078C683.89 509.141 703.384 545.803 704.6 581.411C697.245 581.324 689.882 581.408 682.527 581.422L520.832 581.476C520.262 564.469 520.777 547.322 520.792 530.301L520.388 441.906Z"></path>
	<path d="M520.58 604.612C525.417 604.313 530.283 603.679 535.112 603.208C577.739 600.643 617.98 613.238 650.718 640.842C682.582 667.71 700.648 703.174 704.138 744.528L688.75 744.511L520.762 744.373L520.58 604.612Z"></path>
	<path d="M319.997 743.601L319.938 656.021C319.871 639.104 318.93 621.708 320.159 604.858C327.417 638.531 345.728 668.809 372.179 690.875C407.535 720.238 452.597 729.305 497.483 725.188L497.522 743.364C496.994 743.833 496.214 743.904 495.52 743.949C488.163 744.427 480.49 743.993 473.107 743.983L428.907 743.911C392.642 743.848 356.244 744.513 319.997 743.601Z"></path>
</svg></svg></g></g><defs><clipPath id="SvgjsClipPath1030"><rect width="1000" height="1000" x="0" y="0" rx="350" ry="350"></rect></clipPath></defs></svg></g></svg>