<?xml version="1.0" standalone="no"?>
<!DOCTYPE svg PUBLIC "-//W3C//DTD SVG 20010904//EN"
 "http://www.w3.org/TR/2001/REC-SVG-20010904/DTD/svg10.dtd">
<svg version="1.0" xmlns="http://www.w3.org/2000/svg"
 width="2480.000000pt" height="2542.000000pt" viewBox="0 0 2480.000000 2542.000000"
 preserveAspectRatio="xMidYMid meet">

<g transform="translate(0.000000,2542.000000) scale(0.100000,-0.100000)"
fill="#000000" stroke="none">
<path d="M17710 24329 c-210 -21 -457 -87 -604 -161 -236 -119 -431 -321 -550
-572 -111 -232 -176 -513 -218 -946 -18 -186 -18 -1122 0 -1315 51 -540 141
-862 317 -1126 212 -318 532 -493 1011 -554 124 -15 506 -18 629 -4 777 87
1176 489 1315 1324 97 589 88 1598 -20 2136 -102 507 -318 845 -660 1032 -147
81 -340 142 -540 173 -127 19 -542 27 -680 13z m667 -79 c335 -49 562 -151
753 -340 348 -344 474 -886 464 -2000 -3 -394 -12 -574 -39 -785 -131 -1035
-591 -1439 -1615 -1420 -571 11 -944 162 -1184 482 -200 267 -308 655 -346
1248 -13 206 -13 893 0 1100 43 654 156 1031 399 1323 102 122 297 251 476
315 134 48 352 87 545 100 130 8 417 -4 547 -23z"/>
<path d="M2640 24304 c-396 -38 -646 -134 -825 -319 -191 -196 -277 -481 -262
-865 13 -329 105 -570 286 -750 130 -129 299 -216 502 -259 52 -11 92 -20 89
-21 -3 0 -34 -3 -70 -6 -675 -54 -970 -414 -970 -1181 0 -405 85 -664 285
-869 125 -128 268 -211 470 -273 273 -83 351 -88 1327 -90 l828 -1 5 22 c3 13
4 1056 3 2318 l-3 2295 -815 1 c-448 0 -831 -1 -850 -2z m1590 -1129 l0 -1055
-752 0 c-793 0 -910 5 -1089 45 -539 120 -798 518 -750 1154 28 377 149 599
407 746 134 77 326 133 524 154 41 5 432 9 868 10 l792 1 0 -1055z m-2 -2280
l-3 -1146 -792 0 c-490 1 -830 5 -890 11 -639 70 -981 360 -1063 900 -14 95
-14 375 0 499 47 414 221 663 547 781 98 35 288 75 418 88 50 5 471 10 938 11
l847 1 -2 -1145z"/>
<path d="M6060 24299 c-273 -25 -482 -83 -648 -181 -31 -18 -96 -72 -144 -119
-74 -74 -93 -100 -137 -190 -86 -176 -118 -345 -127 -654 -7 -282 23 -523 86
-697 119 -327 400 -514 850 -569 55 -7 100 -15 100 -19 0 -3 -13 -31 -29 -61
-105 -196 -1090 -2026 -1118 -2076 l-35 -63 50 0 50 0 382 718 c211 394 400
749 421 787 21 39 112 209 202 378 l164 309 809 -1 809 -1 3 -1096 2 -1095 43
3 42 3 0 2315 0 2315 -845 1 c-465 1 -883 -2 -930 -7z m1690 -1215 l0 -1145
-862 4 c-920 5 -924 5 -1126 56 -185 48 -303 112 -422 231 -119 119 -180 240
-219 437 -26 132 -32 214 -32 427 1 450 79 705 270 878 142 129 368 216 636
246 44 5 457 10 918 11 l837 1 0 -1146z"/>
<path d="M8607 24303 c-11 -10 -8 -3148 3 -3318 18 -288 65 -494 156 -684 176
-368 467 -559 974 -638 165 -26 713 -26 880 0 362 56 609 170 788 362 165 176
262 394 319 720 16 92 17 239 20 1833 l3 1732 -35 0 -35 0 0 -1647 c0 -1071
-4 -1688 -11 -1763 -63 -699 -381 -1062 -1019 -1165 -145 -23 -265 -30 -505
-29 -925 3 -1342 324 -1449 1114 -11 87 -14 397 -15 1789 -1 925 -4 1687 -7
1692 -6 10 -57 12 -67 2z"/>
<path d="M12520 21989 l0 -2320 21 3 c16 2 144 185 491 703 868 1294 1354
2017 1638 2440 155 231 406 606 558 833 153 228 283 421 290 430 10 14 11
-398 6 -2195 l-7 -2213 47 0 46 0 0 2320 c0 2203 -1 2320 -17 2320 -10 -1 -29
-17 -43 -38 -15 -20 -219 -325 -455 -677 -236 -352 -565 -842 -732 -1090 -166
-247 -416 -621 -556 -830 -141 -209 -369 -549 -507 -755 -139 -206 -351 -522
-472 -702 -120 -181 -220 -328 -223 -328 -2 0 -1 995 2 2210 l6 2210 -46 0
-47 0 0 -2321z"/>
<path d="M5890 18740 l-465 -310 47 0 c51 0 16 -21 670 408 81 54 168 110 193
125 l45 29 158 -103 c86 -57 280 -183 430 -281 257 -169 275 -179 315 -176 42
3 40 4 -421 311 -257 170 -473 307 -485 307 -12 0 -228 -137 -487 -310z"/>
<path d="M2410 18154 c-328 -15 -564 -51 -822 -125 l-108 -32 0 -37 0 -37 88
29 c267 90 558 132 947 137 468 5 806 -76 1077 -260 92 -62 237 -207 308 -307
188 -263 313 -650 360 -1107 6 -60 13 -126 15 -145 3 -19 8 -163 11 -320 34
-1548 -387 -2285 -1380 -2415 -220 -28 -674 -19 -926 20 -142 22 -384 83 -483
120 -14 6 -17 1 -17 -28 l0 -36 83 -26 c284 -91 582 -129 997 -129 204 0 294
4 390 18 851 123 1275 648 1390 1721 36 338 34 924 -5 1260 -82 711 -303 1169
-689 1426 -205 138 -427 216 -716 253 -120 15 -391 25 -520 20z"/>
<path d="M6362 18148 c-10 -13 -1652 -4643 -1652 -4660 0 -4 18 -8 39 -8 37 0
40 2 54 43 25 72 427 1209 449 1270 l21 57 1110 -2 1110 -3 237 -680 237 -680
41 -3 c23 -2 42 -1 42 1 0 9 -1640 4643 -1648 4656 -12 21 -27 24 -40 9z m558
-1665 c294 -840 535 -1533 535 -1540 0 -11 -191 -13 -1074 -13 -591 0 -1075 1
-1077 3 -5 5 1069 3077 1075 3077 3 0 247 -687 541 -1527z"/>
<path d="M14842 18147 c-9 -10 -1636 -4596 -1650 -4649 -4 -15 2 -18 36 -18
38 0 41 2 55 43 27 77 428 1211 449 1270 l21 57 1110 -2 1110 -3 237 -680 237
-680 42 -3 c22 -2 41 -1 41 1 0 3 -358 1017 -796 2253 -437 1237 -807 2283
-821 2324 -35 100 -48 116 -71 87z m558 -1664 c294 -839 535 -1532 535 -1540
0 -11 -184 -13 -1074 -13 -591 0 -1075 1 -1077 3 -5 5 1069 3077 1075 3077 3
0 247 -687 541 -1527z"/>
<path d="M22022 18148 c-8 -11 -1635 -4595 -1650 -4650 -4 -15 2 -18 36 -18
35 0 41 4 50 28 27 74 437 1235 454 1285 l20 57 1110 -2 1111 -3 237 -680 237
-680 42 -3 c22 -2 41 -1 41 1 0 10 -1640 4642 -1648 4656 -12 21 -27 24 -40 9z
m50 -216 c14 -42 257 -733 538 -1535 281 -803 510 -1461 507 -1463 -2 -2 -487
-4 -1078 -4 -856 0 -1074 2 -1073 12 2 24 1067 3068 1073 3068 3 0 18 -35 33
-78z"/>
<path d="M8612 18117 c-9 -11 -11 -578 -10 -2323 l3 -2309 44 -3 44 -3 -5
2205 c-3 1213 -3 2206 -1 2206 2 0 66 -127 142 -282 161 -328 1595 -3245 1698
-3453 54 -110 74 -141 91 -143 20 -3 37 27 161 280 76 156 214 436 306 623 92
187 209 426 260 530 51 105 337 685 635 1290 298 605 546 1112 552 1128 5 15
13 27 16 27 4 0 6 -992 4 -2205 l-2 -2205 40 0 40 0 -2 2323 -3 2322 -25 0
c-30 0 21 98 -455 -870 -208 -423 -461 -939 -563 -1145 -101 -206 -231 -469
-287 -585 -57 -115 -205 -417 -330 -670 -125 -253 -252 -513 -283 -577 -30
-65 -58 -118 -62 -118 -4 0 -75 138 -158 308 -83 169 -242 492 -353 717 -111
226 -279 568 -373 760 -1078 2194 -1071 2180 -1093 2183 -11 2 -25 -3 -31 -11z"/>
<path d="M18220 18123 c-693 -24 -1048 -223 -1175 -660 -48 -162 -59 -266 -59
-548 -1 -279 9 -382 50 -544 103 -395 384 -607 893 -670 46 -6 86 -13 88 -15
3 -2 -6 -24 -20 -48 -13 -24 -42 -77 -64 -118 -71 -132 -894 -1663 -923 -1715
-15 -27 -51 -95 -80 -150 -30 -55 -62 -113 -72 -130 -10 -16 -18 -33 -18 -37
0 -5 20 -8 45 -8 35 0 47 5 59 23 14 21 207 384 857 1604 l304 572 813 1 812
0 0 -1100 0 -1100 40 0 40 0 -2 2323 -3 2322 -755 0 c-415 1 -789 0 -830 -2z
m1510 -1218 c0 -630 -3 -1145 -7 -1145 -5 0 -379 0 -833 0 -682 0 -845 2 -940
15 -297 39 -484 117 -631 264 -190 190 -262 455 -253 927 4 191 16 300 48 427
88 347 314 540 721 616 183 35 270 38 1098 40 l797 1 0 -1145z"/>
<path d="M2975 11958 c-114 -308 -1643 -4652 -1640 -4658 8 -12 63 -9 74 4 4
6 112 307 240 668 127 362 234 665 237 673 6 13 132 15 1117 13 l1112 -3 231
-664 c127 -366 237 -673 243 -684 15 -23 77 -21 75 3 -1 11 -1143 3244 -1636
4633 -10 28 -45 38 -53 15z m569 -1672 c295 -841 536 -1533 536 -1537 0 -5
-486 -9 -1081 -9 -861 0 -1080 3 -1077 13 3 6 245 701 539 1544 294 842 537
1529 540 1525 4 -4 248 -695 543 -1536z"/>
<path d="M10135 11964 c-541 -47 -887 -213 -1121 -539 -175 -245 -299 -675
-329 -1140 -4 -55 -9 -111 -12 -125 -9 -52 -12 -843 -3 -1015 40 -749 183
-1195 475 -1488 259 -259 643 -387 1168 -390 l168 -1 -223 -57 c-123 -31 -482
-122 -798 -203 -316 -80 -766 -195 -1000 -254 l-425 -108 -3 -42 c-2 -23 -2
-42 0 -42 2 0 53 13 113 29 61 16 718 189 1462 385 743 196 1391 370 1440 387
414 144 685 420 821 839 70 213 107 421 133 745 14 174 19 925 8 1139 -39 748
-183 1199 -474 1491 -219 218 -504 337 -910 380 -111 12 -396 17 -490 9z m635
-92 c223 -41 414 -113 560 -212 364 -247 551 -716 597 -1495 13 -206 9 -1012
-5 -1174 -38 -439 -109 -746 -227 -983 -187 -372 -501 -582 -978 -654 -146
-22 -530 -27 -683 -9 -371 44 -636 156 -834 355 -262 263 -397 665 -444 1320
-15 208 -18 920 -5 1125 38 590 135 964 320 1236 166 244 437 411 779 479 173
34 242 39 530 36 226 -3 295 -7 390 -24z"/>
<path d="M6255 11933 c-112 -7 -306 -35 -395 -57 -463 -115 -678 -377 -729
-887 -16 -160 -6 -536 17 -669 48 -266 120 -412 273 -554 133 -123 372 -217
628 -248 53 -6 99 -14 104 -18 4 -3 -75 -159 -176 -346 -101 -186 -204 -377
-229 -424 -159 -297 -502 -934 -619 -1151 -76 -141 -139 -262 -141 -270 -2
-10 8 -14 33 -15 20 -1 41 1 46 5 13 8 9 0 263 476 20 39 130 243 243 455 113
212 312 583 441 825 l235 440 33 -2 c18 0 383 -1 810 -2 l778 -1 2 -1097 3
-1098 35 0 35 0 3 2323 2 2322 -822 -2 c-453 -1 -845 -3 -873 -5z m1615 -1219
l0 -1145 -872 4 c-577 3 -895 8 -938 16 -388 66 -617 207 -739 454 -83 170
-113 344 -113 667 0 124 5 266 11 315 53 410 229 640 580 755 80 26 275 64
376 73 22 2 412 4 868 5 l827 2 0 -1146z"/>
<path d="M12703 10203 c3 -1896 -1 -1777 58 -2008 111 -433 353 -701 749 -830
376 -121 993 -136 1403 -33 241 60 401 144 550 287 148 143 242 308 307 537
77 276 82 400 78 2244 l-3 1535 -37 3 -38 3 0 -1658 c0 -1060 -4 -1697 -10
-1767 -62 -645 -338 -997 -886 -1127 -165 -39 -283 -50 -554 -54 -451 -6 -713
39 -960 166 -351 179 -531 503 -584 1049 -2 25 -5 798 -5 1718 l-1 1672 -35 0
-36 0 4 -1737z"/>
<path d="M16750 9620 l0 -2320 25 -6 c14 -3 32 -4 40 0 13 5 15 271 15 2326
l0 2320 -40 0 -40 0 0 -2320z"/>
<path d="M17742 9441 c-8 -5 -12 -21 -10 -37 l3 -29 775 0 775 0 3 23 c8 54
41 52 -777 52 -416 0 -762 -4 -769 -9z"/>
<path d="M8460 5773 c-239 -18 -494 -63 -663 -117 l-102 -32 -3 -36 -3 -37 58
20 c93 32 310 86 413 103 241 39 594 55 825 37 437 -34 744 -159 986 -400 361
-362 526 -951 526 -1886 1 -899 -167 -1508 -515 -1868 -180 -186 -478 -332
-777 -381 -278 -46 -725 -41 -1035 10 -157 26 -374 82 -468 121 -10 4 -13 -5
-10 -33 l3 -39 108 -32 c251 -76 513 -111 872 -120 458 -11 736 38 1020 177
487 240 758 726 849 1521 24 211 37 534 32 774 -22 902 -184 1443 -541 1801
-229 230 -515 358 -915 409 -96 12 -541 18 -660 8z"/>
<path d="M15297 5769 c-126 -12 -320 -53 -423 -90 -196 -68 -343 -158 -474
-289 -280 -280 -421 -699 -469 -1395 -12 -164 -11 -957 0 -1130 70 -1051 382
-1547 1084 -1724 142 -35 285 -52 496 -58 474 -13 826 65 1104 245 85 56 257
224 314 309 145 217 245 515 296 885 36 263 44 448 41 978 -2 283 -6 526 -9
540 -3 14 -8 68 -12 120 -4 52 -18 165 -31 250 -133 850 -520 1259 -1286 1354
-126 16 -493 19 -631 5z m662 -74 c695 -101 1040 -465 1171 -1237 53 -318 74
-779 61 -1353 -19 -799 -161 -1295 -456 -1591 -243 -243 -582 -359 -1080 -368
-862 -16 -1333 280 -1528 960 -95 328 -129 684 -129 1319 0 549 20 828 82
1137 108 534 351 871 743 1028 156 63 363 107 567 123 114 9 463 -2 569 -18z"/>
<path d="M18810 5769 c-222 -21 -527 -87 -692 -149 -57 -21 -58 -22 -58 -60
l0 -38 118 39 c341 115 645 157 1077 146 465 -11 760 -91 995 -268 234 -177
345 -442 349 -834 3 -223 -24 -373 -94 -520 -48 -103 -95 -164 -180 -232 -189
-151 -484 -234 -1045 -293 -345 -36 -463 -54 -653 -101 -461 -115 -668 -322
-743 -744 -25 -142 -30 -427 -10 -565 87 -593 506 -942 1256 -1045 161 -22
523 -31 690 -16 330 29 677 99 915 184 36 12 40 18 43 50 2 21 -1 37 -6 37 -5
0 -38 -11 -73 -24 -168 -63 -470 -131 -724 -163 -174 -22 -626 -25 -785 -5
-587 73 -963 289 -1140 655 -80 168 -112 331 -111 572 1 246 32 416 101 560
74 153 169 247 340 334 211 108 447 161 935 211 312 32 461 57 645 106 504
136 710 423 710 994 0 359 -79 599 -261 794 -179 191 -421 301 -804 362 -117
19 -641 27 -795 13z"/>
<path d="M1082 5713 l3 -38 720 -2 720 -2 3 -2281 2 -2281 38 3 37 3 3 1930
c1 1062 3 2086 5 2278 l2 347 715 3 715 2 3 38 3 37 -1486 0 -1486 0 3 -37z"/>
<path d="M4450 5716 c0 -22 6 -36 16 -40 9 -3 560 -6 1225 -6 l1209 0 0 -1055
0 -1055 -1106 0 -1105 0 3 -37 3 -38 1103 -3 1102 -2 0 -1145 0 -1145 -1225 0
-1225 0 0 -40 0 -40 1265 0 1265 0 0 2320 0 2320 -1265 0 -1265 0 0 -34z"/>
<path d="M10792 5713 l3 -38 720 -2 720 -3 3 -2280 2 -2281 38 3 37 3 3 1650
c1 908 3 1932 5 2278 l2 628 710 -1 c391 0 715 4 722 8 7 4 11 21 10 37 l-2
30 -1488 3 -1488 2 3 -37z"/>
</g>
</svg>
